#tb 0: 1/25
0,          0,          0,        1,    38016, 0x2fad15e2
0,          1,          1,        1,    38016, 0x7e391566
0,          2,          2,        1,    38016, 0x954001d4
0,          3,          3,        1,    38016, 0xe5ae2057
0,          4,          4,        1,    38016, 0xface3d5e
0,          5,          5,        1,    38016, 0x2b2361cd
0,          6,          6,        1,    38016, 0x5e906b5a
0,          7,          7,        1,    38016, 0xa46398e5
0,          8,          8,        1,    38016, 0x2a3ea141
0,          9,          9,        1,    38016, 0xa2a0beac
0,         10,         10,        1,    38016, 0x4830ab90
0,         11,         11,        1,    38016, 0xdd53d0fc
0,         12,         12,        1,    38016, 0x4d71ae7d
0,         13,         13,        1,    38016, 0x2290a25e
0,         14,         14,        1,    38016, 0x8baa6cca
0,         15,         15,        1,    38016, 0xc3e99458
0,         16,         16,        1,    38016, 0x5c608374
0,         17,         17,        1,    38016, 0x6443aa6c
0,         18,         18,        1,    38016, 0x1ef7991c
0,         19,         19,        1,    38016, 0xd246b49b
0,         20,         20,        1,    38016, 0xe181a026
0,         21,         21,        1,    38016, 0x878db497
0,         22,         22,        1,    38016, 0x071079c2
0,         23,         23,        1,    38016, 0xa94a62fa
0,         24,         24,        1,    38016, 0xa9da278f
0,         25,         25,        1,    38016, 0x247b3195
0,         26,         26,        1,    38016, 0xd7f81a90
0,         27,         27,        1,    38016, 0x9c303cdc
0,         28,         28,        1,    38016, 0x646e42a1
0,         29,         29,        1,    38016, 0x474a613d
0,         30,         30,        1,    38016, 0x63255932
0,         31,         31,        1,    38016, 0x2f0569e4
0,         32,         32,        1,    38016, 0x1f525192
